<?xml version="1.0" standalone="no"?>
<!DOCTYPE svg PUBLIC "-//W3C//DTD SVG 20010904//EN"
 "http://www.w3.org/TR/2001/REC-SVG-20010904/DTD/svg10.dtd">
<svg version="1.0" xmlns="http://www.w3.org/2000/svg"
 width="1024.000000pt" height="599.000000pt" viewBox="0 0 1024.000000 599.000000"
 preserveAspectRatio="xMidYMid meet">

<g transform="translate(0.000000,599.000000) scale(0.100000,-0.100000)"
fill="#000000" stroke="none">
<path d="M567 4446 c-106 -44 -181 -115 -235 -225 l-37 -75 -3 -1105 c-2 -730
1 -1122 8 -1154 26 -123 124 -248 235 -303 l60 -29 840 0 840 0 68 33 c121 60
212 179 237 311 15 79 14 2163 -1 2233 -27 125 -115 235 -237 295 l-76 38
-820 2 -821 3 -58 -24z m1726 -83 c70 -32 150 -113 181 -182 l26 -59 -2 -1124
-3 -1123 -23 -48 c-31 -62 -97 -129 -163 -164 l-54 -28 -815 0 -815 0 -47 23
c-75 38 -134 96 -170 170 l-33 67 -3 1089 c-3 1209 -6 1150 63 1251 47 69 118
122 195 146 14 4 383 7 820 6 l795 -2 48 -22z"/>
<path d="M1300 4118 c-62 -43 -88 -129 -56 -190 14 -27 13 -29 -17 -51 -278
-204 -364 -283 -414 -380 -53 -105 -53 -99 -53 -839 l0 -688 -57 0 c-96 0
-157 -52 -151 -127 l3 -38 301 -3 c332 -3 322 -5 304 59 -26 88 -66 109 -215
109 l-106 0 3 703 3 702 28 59 c36 77 156 196 306 304 62 45 117 82 121 82 5
0 24 -22 43 -48 l36 -48 -32 -64 c-30 -59 -32 -72 -32 -165 0 -84 4 -108 24
-152 13 -29 30 -53 38 -53 10 0 564 326 642 379 12 7 10 15 -8 44 -58 94 -182
165 -306 174 l-76 6 -74 108 c-45 64 -87 115 -105 124 -43 22 -111 19 -150 -7z"/>
<path d="M1820 3438 c-38 -56 -82 -84 -151 -96 -54 -9 -61 -39 -14 -61 63 -31
170 25 214 113 20 39 22 51 13 72 -7 13 -15 24 -20 24 -4 0 -23 -23 -42 -52z"/>
<path d="M1976 3271 c-4 -5 -3 -18 1 -29 9 -22 145 -142 162 -142 5 0 15 9 21
21 14 26 10 31 -84 103 -73 56 -90 64 -100 47z"/>
<path d="M1733 3073 c11 -140 23 -168 62 -139 18 13 18 18 6 82 -22 123 -30
144 -53 144 -20 0 -21 -3 -15 -87z"/>
<path d="M1117 2923 c-4 -3 -7 -205 -7 -448 l0 -442 39 -26 c49 -32 78 -80 91
-147 6 -29 10 -55 10 -57 0 -2 39 -2 88 -1 l87 3 3 549 c1 397 -1 553 -9 562
-9 11 -46 14 -154 14 -78 0 -145 -3 -148 -7z m242 -182 c24 -16 -22 -31 -94
-31 -72 0 -118 15 -94 31 8 5 50 9 94 9 44 0 86 -4 94 -9z"/>
<path d="M1530 2751 c-11 -21 -15 -907 -4 -935 5 -13 24 -16 105 -16 l99 0 0
83 c0 45 1 258 2 473 1 215 -2 396 -6 402 -5 8 -39 12 -96 12 -78 0 -91 -2
-100 -19z"/>
<path d="M1822 2758 c-9 -9 -12 -130 -12 -484 l0 -471 83 -6 c69 -5 84 -3 95
10 17 24 18 933 0 951 -16 16 -150 16 -166 0z"/>
<path d="M2096 2747 c-20 -20 -23 -32 -20 -68 3 -24 22 -228 44 -452 22 -224
42 -412 45 -417 3 -6 40 -10 81 -10 60 0 76 3 81 16 6 16 2 65 -56 637 -32
315 -33 317 -108 317 -33 0 -50 -6 -67 -23z"/>
<path d="M8076 4302 c-3 -3 -6 -28 -6 -55 l0 -50 -162 6 c-90 3 -172 8 -183 9
-15 2 -21 -3 -23 -23 -2 -19 5 -33 29 -53 17 -15 37 -25 44 -22 32 12 134 18
211 11 l85 -7 -3 -31 -3 -32 -255 0 -255 0 -3 -42 c-2 -30 1 -43 10 -44 7 0
124 0 261 1 l247 1 0 -30 0 -31 -191 0 -190 0 3 -42 3 -41 188 2 187 2 0 -30
0 -31 -190 0 -190 0 0 -32 c0 -62 0 -62 199 -55 l181 6 0 -28 0 -29 -162 -7
c-90 -4 -206 -6 -258 -4 l-95 4 -3 -36 c-2 -21 2 -40 10 -46 9 -8 102 -8 318
0 203 7 390 7 560 1 173 -7 257 -6 262 1 4 5 8 27 8 48 l0 37 -255 0 -255 0 0
31 0 31 164 -3 c180 -3 200 2 194 50 l-3 26 -182 3 -183 2 0 32 0 31 153 -5
c206 -7 202 -9 203 76 l1 68 84 2 84 1 0 45 0 44 -50 -4 c-27 -2 -66 -4 -85
-4 l-35 -1 -5 75 -5 75 -172 -4 -173 -4 0 47 c0 29 -5 48 -12 50 -26 8 -97 14
-102 8z m346 -212 c-4 -30 -4 -30 -78 -32 -161 -4 -149 -6 -149 27 l0 30 105
5 c58 3 110 4 116 2 6 -1 8 -16 6 -32z m-2 -145 l0 -35 -115 0 -115 0 0 29 c0
16 6 32 13 34 6 3 58 6 115 6 l102 1 0 -35z"/>
<path d="M4850 4244 l0 -57 -97 7 c-54 4 -109 8 -123 9 -21 2 -25 -3 -28 -31
-6 -56 9 -64 117 -62 138 3 131 4 131 -31 l0 -30 -97 2 c-53 1 -98 -2 -99 -7
-1 -5 -4 -62 -7 -126 l-4 -118 58 0 c43 0 59 -4 59 -14 0 -24 -83 -91 -143
-116 -50 -21 -57 -27 -57 -51 0 -30 23 -49 58 -49 23 0 157 87 191 124 14 14
29 26 34 26 5 0 7 -34 6 -77 -3 -68 -2 -77 16 -83 19 -7 84 -2 95 7 3 3 7 42
10 89 l5 84 45 -36 c25 -20 57 -42 72 -50 26 -13 30 -12 60 15 l32 28 -74 49
-73 49 54 9 c30 4 60 13 67 18 18 15 17 202 -2 217 -10 9 -40 10 -100 5 -94
-7 -105 -1 -92 52 l7 27 113 -7 c127 -8 140 -2 134 56 l-3 33 -95 -3 c-52 -2
-107 -5 -122 -8 -26 -5 -27 -4 -30 48 l-3 53 -57 3 -58 3 0 -57z m0 -325 l0
-50 -52 3 -53 3 -3 48 -3 47 55 0 56 0 0 -51z m210 0 l0 -50 -47 3 c-46 3 -48
4 -51 36 -5 53 2 62 53 62 l45 0 0 -51z"/>
<path d="M5328 4294 c-3 -5 -11 -27 -18 -49 -7 -22 -39 -97 -72 -167 -33 -70
-58 -135 -56 -144 5 -28 64 -39 96 -18 18 12 27 14 30 5 2 -6 22 -35 43 -64
l40 -52 -53 -49 c-29 -27 -81 -62 -115 -78 -72 -32 -81 -57 -38 -98 l26 -24
73 36 c40 20 98 57 128 81 l55 45 101 -74 c56 -41 108 -74 116 -74 19 0 86 64
86 82 0 8 -21 24 -47 37 -54 26 -173 108 -173 119 0 4 14 34 30 67 17 32 38
84 47 115 21 73 28 80 80 80 l44 0 -3 41 -3 41 -162 2 c-89 0 -165 4 -169 8
-4 4 2 33 13 63 12 30 17 58 12 61 -16 10 -106 16 -111 8z m129 -234 l65 0 -7
-27 c-10 -45 -53 -133 -64 -133 -11 0 -45 43 -80 103 -24 40 -22 73 5 63 9 -3
45 -6 81 -6z"/>
<path d="M9176 4226 c-44 -87 -148 -219 -206 -260 -22 -17 -40 -38 -40 -47 0
-20 59 -69 82 -69 33 0 38 -45 38 -351 0 -231 -3 -301 -12 -303 -7 -3 -25 -7
-40 -10 -23 -5 -28 -12 -28 -35 0 -15 9 -40 20 -54 l20 -25 129 44 c72 24 153
55 180 69 28 14 53 25 56 25 3 0 38 -50 61 -88 1 -2 18 4 38 12 27 11 36 21
36 38 0 34 -67 143 -127 207 l-51 56 -36 -19 c-45 -24 -45 -43 -1 -86 19 -19
35 -37 35 -41 0 -8 -99 -47 -142 -56 l-28 -5 0 112 0 113 133 -6 c77 -3 140
-1 150 4 15 9 17 33 17 224 l0 215 -70 0 c-61 0 -70 2 -70 18 0 27 -49 119
-66 126 -15 6 -74 -28 -74 -42 0 -4 11 -25 25 -47 13 -22 25 -43 25 -47 0 -5
-40 -8 -90 -8 l-90 0 59 58 c32 32 77 88 100 125 24 37 49 67 56 67 17 0 99
-92 132 -148 27 -45 38 -49 96 -27 14 6 17 1 17 -28 0 -39 22 -54 63 -43 l22
5 -3 -425 -2 -425 52 3 c49 3 53 5 56 31 l3 27 140 0 c132 0 139 -1 139 -20 0
-18 7 -20 55 -20 l55 0 0 200 0 200 -195 0 -196 0 3 58 3 57 100 3 c55 1 109
-2 120 -7 31 -15 69 -21 93 -14 22 5 22 9 22 159 l0 154 31 0 c64 0 69 9 69
130 0 59 -3 116 -6 125 -6 14 -19 15 -104 9 -54 -4 -109 -4 -123 0 -25 6 -26
10 -29 79 l-3 72 -60 0 -60 0 -3 -78 -3 -79 -119 7 -120 8 0 -74 0 -74 -23 37
c-26 43 -80 103 -132 145 -33 28 -36 33 -25 53 15 28 5 39 -46 51 -66 15 -69
13 -108 -65z m807 -172 l38 -7 -3 -61 -3 -61 -192 -3 -193 -2 0 70 0 70 158 0
c86 0 174 -3 195 -6z m-53 -299 l0 -75 -115 0 -115 0 0 75 0 75 115 0 115 0 0
-75z m-576 29 c3 -9 6 -26 6 -39 0 -29 -21 -35 -122 -35 l-78 0 0 45 0 45 94
0 c76 0 95 -3 100 -16z m4 -201 l3 -42 -91 -3 c-50 -2 -95 -1 -100 0 -6 2 -10
24 -10 48 l0 45 98 -3 97 -3 3 -42z m622 -293 l0 -90 -140 0 -140 0 0 90 0 90
140 0 140 0 0 -90z"/>
<path d="M4030 4228 c-30 -5 -218 -8 -418 -6 l-362 3 0 -322 0 -323 56 0 c47
0 57 3 61 20 5 19 14 20 340 20 320 0 335 -1 340 -19 5 -21 62 -35 101 -25
l22 6 0 313 c0 379 8 359 -140 333z m-380 -178 l0 -80 -140 0 -140 0 0 73 c0
41 3 77 7 80 3 4 66 7 140 7 l133 0 0 -80z m400 46 c0 -18 -3 -54 -6 -80 l-7
-46 -133 0 -134 0 0 80 0 80 140 0 140 0 0 -34z m-402 -303 l3 -83 -134 0
-134 0 -7 46 c-8 61 -8 109 1 118 4 3 66 5 137 4 l131 -3 3 -82z m392 2 l0
-85 -135 0 -135 0 0 79 c0 54 4 81 13 84 6 3 67 6 135 6 l122 1 0 -85z"/>
<path d="M6104 4219 c-2 -4 -5 -267 -6 -585 l-2 -579 56 -3 c51 -3 57 -1 64
20 3 13 12 26 18 30 6 4 199 8 429 8 l417 0 10 -24 c6 -18 19 -26 50 -31 24
-4 46 -3 51 2 6 6 11 225 13 549 1 296 5 550 9 564 15 52 31 51 -557 53 -302
1 -550 -1 -552 -4z m968 -98 l23 -9 -3 -451 -2 -451 -435 0 -435 0 0 453 c0
250 3 457 7 460 10 10 818 8 845 -2z"/>
<path d="M6582 4070 c-37 -15 -38 -38 -3 -101 18 -32 40 -82 50 -111 16 -46
21 -53 47 -55 16 -2 46 5 66 15 l38 17 -23 50 c-13 28 -45 83 -70 123 -48 73
-59 80 -105 62z"/>
<path d="M6337 4014 c-35 -19 -32 -38 14 -116 18 -29 37 -69 44 -88 11 -32 16
-35 56 -38 28 -2 51 3 64 12 20 15 19 17 -29 111 -44 85 -86 136 -113 135 -4
-1 -21 -8 -36 -16z"/>
<path d="M6902 4018 c-6 -6 -12 -16 -12 -22 0 -18 -84 -191 -131 -271 -78
-131 -55 -125 -202 -55 -70 34 -143 64 -162 67 -47 8 -85 -18 -85 -56 0 -36
13 -46 91 -72 78 -26 199 -86 199 -99 0 -19 -136 -121 -210 -159 -41 -21 -76
-44 -78 -52 -4 -21 36 -69 57 -69 23 0 152 63 209 102 26 18 66 50 90 72 51
47 55 46 160 -50 39 -35 77 -64 84 -64 8 0 33 16 57 36 l42 37 -28 29 c-15 17
-65 57 -110 90 l-82 59 36 56 c46 72 203 372 203 388 0 25 -108 53 -128 33z"/>
<path d="M3672 3560 c-50 -31 -50 -46 0 -98 46 -47 99 -122 111 -154 9 -24 24
-22 79 10 47 28 47 28 33 56 -33 63 -160 206 -183 206 -4 0 -22 -9 -40 -20z"/>
<path d="M4694 3541 c-9 -9 -3 -58 9 -75 11 -15 35 -18 197 -20 102 -2 193 -4
203 -5 15 -1 17 -14 17 -131 l0 -130 -85 0 -85 0 0 88 c0 116 -5 132 -41 132
-15 0 -38 -5 -51 -11 -23 -10 -23 -13 -20 -112 l4 -102 -115 3 -116 3 -7 -35
c-13 -71 -54 -66 565 -66 438 0 560 3 563 13 2 6 4 30 3 52 l0 40 -242 -4
-243 -4 0 48 0 47 138 -3 137 -4 3 59 3 58 -33 -6 c-18 -3 -81 -9 -140 -12
l-108 -7 0 42 c0 27 5 44 14 47 8 3 90 1 181 -5 92 -5 173 -7 181 -4 11 4 14
19 12 55 l-3 49 -468 2 c-258 1 -471 0 -473 -2z"/>
<path d="M3445 3492 c-15 -10 -2 -319 15 -354 25 -52 79 -63 305 -63 174 0
204 2 233 18 36 20 57 59 68 125 8 54 -18 82 -78 82 l-43 0 0 -40 c-1 -70 -13
-75 -189 -75 -115 0 -157 3 -169 14 -14 11 -17 35 -17 151 0 116 -2 139 -16
144 -22 8 -97 7 -109 -2z"/>
<path d="M4037 3463 c-20 -14 -37 -29 -37 -32 0 -4 23 -29 51 -56 58 -57 139
-158 139 -174 0 -15 8 -14 57 10 24 11 43 27 43 34 0 21 -83 127 -146 188 -33
31 -61 57 -64 57 -3 0 -22 -12 -43 -27z"/>
<path d="M7730 3275 l0 -215 55 0 c44 0 56 4 65 20 10 19 21 20 279 20 263 0
269 0 274 -21 5 -18 12 -20 64 -17 l58 3 -2 205 c-2 113 -3 208 -3 213 0 4
-178 7 -395 7 l-395 0 0 -215z m670 100 l0 -34 -269 -3 -270 -3 -5 29 c-3 15
-3 32 0 37 3 5 126 9 275 9 l269 0 0 -35z m0 -160 l0 -35 -269 0 -269 0 -4 30
c-3 17 -2 32 0 35 3 3 126 5 274 5 l268 0 0 -35z"/>
<path d="M3241 3388 c-21 -46 -60 -111 -86 -146 -45 -60 -47 -64 -30 -82 9
-10 33 -26 53 -36 l36 -17 32 37 c49 57 134 232 134 277 0 10 -73 49 -90 49
-6 0 -28 -37 -49 -82z"/>
<path d="M3980 2440 l0 -30 -66 0 c-57 0 -65 -2 -62 -17 3 -15 16 -19 66 -21
58 -3 62 -4 62 -27 0 -25 -1 -25 -86 -25 -76 0 -85 -2 -82 -17 3 -15 17 -19
83 -23 l80 -5 -36 -28 c-20 -15 -43 -26 -50 -25 -7 2 -13 -3 -14 -10 0 -7 -10
-21 -22 -30 -15 -12 -20 -21 -14 -31 7 -11 14 -10 39 8 17 11 32 21 34 21 1 0
3 -21 3 -47 0 -41 3 -48 20 -48 17 0 20 8 23 57 l3 57 106 3 c72 2 108 7 110
15 3 9 -23 13 -99 15 l-103 3 35 20 c26 15 60 21 130 25 76 4 95 8 95 20 0 12
-13 14 -72 12 -40 -2 -73 -1 -73 2 0 3 25 28 55 57 30 28 55 58 55 66 0 26
-30 26 -51 -1 -18 -22 -28 -26 -75 -26 -53 0 -54 0 -54 30 0 23 -4 30 -20 30
-16 0 -20 -7 -20 -30z m105 -80 c-3 -5 -19 -19 -35 -30 l-30 -21 0 30 c0 29 3
31 36 31 20 0 33 -4 29 -10z"/>
<path d="M5040 2450 c0 -17 -7 -20 -51 -20 -66 0 -62 -24 4 -28 33 -2 47 -7
47 -18 0 -10 -12 -14 -40 -14 l-40 0 0 -50 c0 -43 3 -50 20 -50 11 0 20 -4 20
-9 0 -10 -43 -47 -63 -54 -7 -2 -9 -8 -5 -12 11 -11 51 2 75 25 29 26 33 25
33 -5 0 -18 5 -25 20 -25 15 0 20 7 20 25 0 29 3 30 33 10 13 -8 28 -11 35 -6
10 6 5 14 -20 29 l-33 22 28 0 c26 0 27 2 27 51 l0 51 -35 -4 c-29 -3 -35 -1
-35 14 0 15 8 18 43 18 48 0 58 5 51 25 -4 8 -19 11 -50 7 -40 -4 -44 -3 -44
17 0 14 -6 21 -20 21 -13 0 -20 -7 -20 -20z m0 -136 c0 -21 -4 -25 -22 -22
-15 2 -24 11 -26 26 -3 18 1 22 22 22 21 0 26 -5 26 -26z m70 1 c0 -16 -6 -25
-15 -25 -9 0 -15 9 -15 25 0 16 6 25 15 25 9 0 15 -9 15 -25z"/>
<path d="M5201 2404 c-17 -36 -31 -70 -31 -75 0 -12 27 -11 35 1 3 6 18 -4 33
-21 l26 -32 -34 -29 c-19 -16 -45 -31 -58 -35 -13 -3 -21 -10 -19 -17 7 -19
59 -8 101 22 l41 30 42 -30 c35 -24 46 -27 63 -18 11 6 20 12 20 14 0 2 -23
17 -51 35 -40 24 -49 35 -44 49 5 9 13 31 19 49 7 20 18 33 31 35 11 2 20 10
20 18 0 12 -13 14 -68 12 l-69 -4 4 28 c2 20 -2 30 -13 32 -12 2 -26 -16 -48
-64z m109 -34 c0 -14 -22 -60 -29 -60 -7 0 -41 54 -41 64 0 3 16 6 35 6 19 0
35 -4 35 -10z"/>
<path d="M6970 2445 c0 -23 -4 -25 -41 -25 -52 0 -48 -24 5 -28 44 -4 44 -27
0 -27 -19 0 -29 -5 -29 -15 0 -10 10 -15 30 -15 20 0 31 -6 33 -17 3 -15 -4
-18 -42 -18 -34 0 -46 -4 -46 -15 0 -9 10 -15 28 -16 15 -1 54 -3 87 -5 73 -5
105 2 105 21 0 11 -13 15 -50 15 -43 0 -50 3 -50 19 0 15 6 19 28 18 18 -1 27
3 27 13 0 10 -10 15 -27 15 -16 -1 -28 5 -28 12 0 8 13 13 34 13 18 0 39 7 46
15 14 17 11 18 -42 15 -35 -1 -38 1 -38 24 0 16 -6 26 -15 26 -9 0 -15 -9 -15
-25z"/>
<path d="M7142 2407 c-36 -73 -37 -77 -19 -77 7 0 21 14 30 30 23 38 70 44 65
8 -2 -18 -8 -22 -27 -20 -21 3 -40 -11 -41 -30 0 -5 16 -8 36 -8 33 0 35 -2
32 -27 -3 -27 -5 -28 -51 -26 -41 3 -48 0 -45 -15 2 -11 14 -18 36 -20 28 -3
32 -7 32 -34 0 -29 -2 -30 -35 -26 -29 3 -35 1 -35 -14 0 -14 8 -18 34 -18 39
0 48 -15 37 -57 -6 -20 -14 -28 -29 -27 -25 1 -26 0 -12 -27 27 -49 80 -3 80
68 l0 42 48 3 47 3 3 48 c4 57 -11 79 -47 75 -22 -3 -27 1 -29 25 -3 23 0 27
23 27 20 0 26 4 23 18 -2 11 -11 16 -26 14 -27 -4 -30 23 -6 49 22 25 9 39
-35 39 -30 0 -38 4 -37 16 3 40 -23 20 -52 -39z m148 -212 c0 -14 -6 -25 -12
-26 -7 0 -21 -2 -30 -4 -14 -2 -18 4 -18 26 0 26 4 29 30 29 25 0 30 -4 30
-25z"/>
<path d="M8858 2463 c-11 -3 -18 -14 -18 -29 0 -31 -30 -39 -121 -31 -77 6
-75 8 -63 -65 5 -28 11 -38 25 -38 14 0 19 7 19 30 0 29 2 30 45 30 l46 0 -15
-29 c-15 -27 -65 -75 -101 -97 -11 -6 -15 -15 -11 -22 22 -37 112 22 147 97
19 39 29 50 47 51 22 0 23 -3 17 -38 -3 -21 -1 -50 4 -65 10 -27 12 -27 101
-27 88 0 91 1 88 22 -3 20 -8 21 -75 19 l-73 -2 0 45 0 46 50 0 c49 0 50 -1
50 -31 0 -26 3 -30 23 -27 17 2 23 11 28 38 10 65 -1 73 -99 69 l-87 -4 3 27
c3 29 -4 37 -30 31z"/>
<path d="M3240 2333 l0 -128 169 0 169 0 5 62 c2 34 4 90 3 125 l-1 63 -172 3
-173 2 0 -127z m150 52 l0 -35 -55 0 -55 0 0 35 0 35 55 0 55 0 0 -35z m150
-1 l0 -35 -52 3 c-52 3 -53 4 -56 36 l-3 32 55 0 56 0 0 -36z m-150 -99 l0
-35 -55 0 -55 0 0 35 0 35 55 0 55 0 0 -35z m134 29 c10 -4 16 -18 16 -35 0
-28 -1 -29 -55 -29 -54 0 -55 1 -55 28 0 16 3 32 7 35 8 9 66 9 87 1z"/>
<path d="M4545 2423 c-18 -34 -24 -38 -65 -41 -54 -4 -68 -15 -50 -37 10 -12
23 -15 42 -11 15 3 28 3 28 0 0 -3 -23 -39 -50 -80 -47 -69 -55 -94 -28 -94 5
0 30 23 55 50 33 37 52 50 72 50 55 0 53 -20 -5 -74 -63 -60 -70 -96 -31 -142
20 -23 34 -28 84 -32 73 -5 136 12 131 36 -4 18 -16 19 -100 6 -54 -8 -98 13
-98 45 0 21 51 81 69 81 6 0 11 -13 11 -30 0 -23 4 -30 20 -30 19 0 24 12 21
50 -2 23 10 35 57 59 42 21 55 47 28 57 -7 3 -30 -5 -50 -17 l-36 -21 -22 27
c-19 24 -26 27 -64 22 -39 -4 -42 -3 -34 13 15 28 33 37 85 45 68 9 80 17 66
43 -10 19 -13 19 -57 6 -43 -13 -46 -12 -39 4 24 57 -11 70 -40 15z"/>
<path d="M5707 2453 c-24 -23 41 -73 77 -60 27 10 18 32 -19 50 -39 19 -48 20
-58 10z"/>
<path d="M8196 2428 c-7 -18 -16 -41 -19 -50 -5 -13 -17 -18 -47 -18 -37 0
-41 -2 -38 -22 2 -18 11 -24 36 -26 17 -2 32 -5 32 -7 0 -3 -13 -38 -30 -80
-34 -86 -36 -101 -15 -109 18 -6 28 11 70 119 30 77 33 80 69 86 45 7 59 20
50 43 -5 14 -14 16 -40 11 -19 -3 -34 -5 -34 -3 0 2 4 18 9 36 8 27 7 34 -10
43 -17 9 -21 6 -33 -23z"/>
<path d="M6243 2426 c-66 -16 -83 -24 -83 -38 0 -14 8 -18 34 -18 19 0 47 5
62 10 27 11 47 5 28 -8 -16 -10 -174 -212 -174 -221 0 -5 6 -14 14 -20 10 -9
19 -4 38 21 55 72 78 88 125 88 33 0 50 -6 68 -25 32 -31 34 -86 4 -116 l-21
-21 -18 30 c-47 76 -134 69 -132 -11 2 -66 84 -97 167 -63 54 23 71 64 66 159
0 17 -13 41 -31 59 -29 28 -35 30 -86 26 -62 -5 -65 -15 24 85 36 40 41 50 32
67 -12 23 -10 23 -117 -4z m44 -328 c30 -28 29 -38 -5 -38 -32 0 -52 16 -52
42 0 25 29 23 57 -4z"/>
<path d="M9262 2227 c3 -214 4 -222 23 -222 19 0 20 8 23 133 l3 132 54 0 c29
0 56 3 58 8 2 4 2 44 -1 89 l-4 82 -79 0 -79 0 2 -222z m118 163 c0 -16 -7
-20 -35 -20 -28 0 -35 4 -35 20 0 16 7 20 35 20 28 0 35 -4 35 -20z m0 -65 c0
-10 -11 -15 -35 -15 -24 0 -35 5 -35 15 0 10 11 15 35 15 24 0 35 -5 35 -15z"/>
<path d="M9482 2363 l3 -88 73 4 73 3 -3 -118 -3 -119 -32 -3 c-29 -3 -31 -5
-20 -23 15 -24 69 -26 91 -3 14 13 16 48 16 225 l0 209 -100 0 -101 0 3 -87z
m148 37 c0 -18 -7 -20 -55 -20 -41 0 -55 4 -55 14 0 11 15 16 53 19 28 2 53 4
55 5 1 1 2 -7 2 -18z m0 -70 c0 -18 -7 -20 -55 -20 -48 0 -55 2 -55 20 0 18 7
20 55 20 48 0 55 -2 55 -20z"/>
<path d="M7635 2428 c-2 -7 -8 -33 -12 -58 l-9 -45 -54 -5 c-51 -5 -55 -7 -55
-30 0 -24 3 -25 48 -23 46 3 48 2 42 -20 -3 -12 -24 -58 -46 -102 -37 -74 -38
-81 -22 -93 25 -18 44 10 90 130 37 94 39 98 69 98 40 0 54 -16 54 -64 0 -47
-37 -116 -74 -136 -32 -17 -29 -34 8 -38 35 -4 91 52 106 106 13 47 13 118 0
142 -11 20 -59 40 -97 40 -21 0 -23 3 -16 28 13 48 9 76 -10 80 -9 2 -19 -2
-22 -10z"/>
<path d="M8374 2366 c-3 -7 9 -34 27 -59 27 -39 35 -44 51 -36 23 12 23 14 -3
55 -29 48 -65 67 -75 40z"/>
<path d="M7808 2338 c-3 -7 6 -28 19 -47 13 -19 26 -45 29 -58 7 -25 20 -29
44 -13 13 8 13 14 -4 45 -23 42 -61 85 -75 85 -5 0 -11 -5 -13 -12z"/>
<path d="M5710 2326 c-48 -8 -66 -15 -68 -29 -5 -24 23 -32 76 -19 26 6 48 9
50 8 1 -2 -24 -32 -56 -67 -61 -67 -122 -151 -122 -167 0 -5 6 -15 14 -21 11
-9 23 1 60 54 67 93 116 102 116 19 0 -75 42 -99 133 -73 31 8 38 14 35 32 -2
18 -8 21 -33 18 -81 -9 -79 -10 -87 43 -7 52 -19 66 -55 66 -13 0 -23 5 -23
10 0 6 3 10 8 10 4 0 27 23 50 50 36 42 42 53 32 65 -14 17 -38 17 -130 1z"/>
<path d="M8315 2276 c-4 -19 -5 -55 -4 -80 l4 -44 -40 -5 c-110 -15 -102 -137
9 -137 41 0 78 22 88 51 3 9 9 9 25 0 58 -30 60 17 3 55 l-39 26 -3 81 c-2 68
-6 82 -20 85 -12 2 -19 -6 -23 -32z m0 -186 c10 -16 -14 -40 -40 -40 -30 0
-49 22 -33 38 15 15 65 16 73 2z"/>
<path d="M6900 2120 c0 -113 1 -120 20 -120 16 0 20 7 20 35 0 35 0 35 45 35
51 0 66 -26 18 -32 -25 -3 -26 -4 -10 -20 10 -10 25 -15 35 -11 35 12 42 35
42 135 l0 98 -85 0 -85 0 0 -120z m130 70 c0 -17 -7 -20 -45 -20 -38 0 -45 3
-45 20 0 17 7 20 45 20 38 0 45 -3 45 -20z m0 -71 c0 -18 -5 -20 -42 -17 -31
2 -44 8 -46 21 -3 14 4 17 42 17 40 0 46 -3 46 -21z"/>
<path d="M9378 2145 c-2 -52 -1 -95 2 -95 3 0 16 7 29 16 18 13 37 15 88 11
l64 -6 -3 82 -3 82 -87 3 -87 3 -3 -96z m142 39 c0 -12 -10 -14 -52 -12 -74 4
-77 28 -4 28 44 0 56 -3 56 -16z m0 -59 c0 -12 -13 -15 -55 -15 -42 0 -55 3
-55 15 0 12 13 15 55 15 42 0 55 -3 55 -15z"/>
<path d="M8858 2193 c-140 -3 -148 -5 -148 -23 0 -18 7 -20 65 -20 l65 0 0
-45 0 -45 -106 0 c-95 0 -105 -2 -102 -17 3 -16 23 -18 226 -21 l223 -2 -3 22
c-3 21 -6 22 -100 19 l-98 -3 0 46 0 45 83 3 c74 3 82 5 82 23 0 23 11 22
-187 18z"/>
<path d="M3390 2178 c1 -23 58 -78 75 -72 21 8 19 18 -11 53 -26 31 -64 42
-64 19z"/>
<path d="M3305 2108 c4 -41 13 -80 21 -88 11 -11 37 -15 99 -15 92 0 112 10
117 55 4 33 -36 42 -45 11 -5 -19 -13 -21 -76 -21 l-70 0 -3 63 c-3 57 -5 62
-27 65 -23 4 -23 3 -16 -70z"/>
<path d="M4980 2156 c0 -13 13 -16 85 -16 l85 0 0 -45 0 -45 -40 0 c-39 0 -40
1 -40 35 0 28 -4 35 -20 35 -16 0 -20 -7 -20 -35 l0 -35 -51 0 c-43 0 -50 -3
-47 -17 3 -16 23 -18 222 -21 165 -2 221 1 227 10 14 23 -2 28 -92 28 l-89 0
0 41 0 42 35 -7 c19 -3 51 -9 70 -12 28 -5 35 -3 35 9 0 26 -64 39 -217 44
-128 5 -143 4 -143 -11z"/>
<path d="M3221 2128 c-6 -18 -20 -42 -32 -54 -17 -19 -18 -22 -4 -34 8 -7 21
-10 29 -7 19 7 59 94 52 112 -9 26 -34 16 -45 -17z"/>
<path d="M3541 2146 c-10 -12 -8 -17 7 -25 10 -5 31 -28 46 -50 24 -34 31 -39
47 -30 26 14 24 20 -22 73 -43 49 -59 55 -78 32z"/>
<path d="M3990 2128 c0 -16 10 -18 71 -18 l70 0 -3 -27 c-3 -26 -7 -28 -54
-33 -48 -5 -51 -6 -43 -27 6 -18 16 -23 42 -23 63 0 96 18 108 60 6 21 9 49 6
62 -6 22 -10 23 -102 23 -84 0 -95 -2 -95 -17z"/>
<path d="M9870 2143 c-23 -9 -39 -35 -40 -63 0 -30 8 -44 37 -59 32 -16 60
-14 83 9 53 53 -9 140 -80 113z m61 -33 c24 -14 24 -42 0 -64 -19 -18 -61 -15
-61 4 0 5 -3 15 -6 23 -5 15 20 47 37 47 6 0 19 -5 30 -10z"/>
<path d="M6618 2109 c-16 -9 -14 -14 15 -54 34 -46 44 -50 61 -22 16 24 -51
91 -76 76z"/>
</g>
</svg>
